<svg xmlns="http://www.w3.org/2000/svg" xmlns:xlink="http://www.w3.org/1999/xlink" width="30" height="53" viewBox="0 0 30 53">
  <defs>
    <clipPath id="clip-path">
      <rect id="Rectangle_10" data-name="Rectangle 10" width="30" height="53" transform="translate(685 898)" fill="#fff" stroke="#707070" stroke-width="1"/>
    </clipPath>
  </defs>
  <g id="Mask_Group_1" data-name="Mask Group 1" transform="translate(-685 -898)" clip-path="url(#clip-path)">
    <g id="hot" transform="translate(685 902.568)">
      <path id="Path_2" data-name="Path 2" d="M16.927,24.932V13.617a.651.651,0,0,0-1.3,0V25.261a.651.651,0,0,0,.273.53,9.24,9.24,0,1,1-10.709,0,.651.651,0,0,0,.273-.53V6.384a5.081,5.081,0,1,1,10.163,0v4.627a.651.651,0,1,0,1.3,0V6.384a6.384,6.384,0,1,0-12.769,0V24.932a10.543,10.543,0,1,0,12.769,0Zm0,0" fill="#fff"/>
      <path id="Path_3" data-name="Path 3" d="M10.542,39.087a5.722,5.722,0,0,1-3.3-1.041.651.651,0,1,0-.748,1.067,7.065,7.065,0,0,0,11.118-5.79,7.09,7.09,0,0,0-2.973-5.762l-1.185-.844V6.384a2.91,2.91,0,1,0-5.82,0V26.716l-1.185.844a7.065,7.065,0,0,0-1.764,9.712.651.651,0,0,0,1.079-.73A5.762,5.762,0,0,1,7.2,28.621l1.458-1.039a.651.651,0,0,0,.274-.53V24.536H12.15v2.515a.651.651,0,0,0,.273.53l1.458,1.039a5.766,5.766,0,0,1-3.339,10.466ZM12.15,13.278H8.936V9.6H12.15Zm-3.214,1.3H12.15v3.675H8.936Zm1.607-9.8A1.609,1.609,0,0,1,12.15,6.384V8.3H8.936V6.384A1.609,1.609,0,0,1,10.542,4.777ZM8.936,23.233V19.559H12.15v3.675Zm0,0" fill="#fff"/>
      <path id="Path_4" data-name="Path 4" d="M29.263,14.569c-.454,0-.7.174-.737.517-.1.768-.246,1.928-2.055,1.928-1.483,0-2.2-.753-2.2-2.3V9.74c0-1.528.725-2.3,2.154-2.3a1.828,1.828,0,0,1,2.1,1.859c.018.335.28.52.737.52s.737-.131.737-.8c0-1.718-1.485-2.918-3.612-2.918a3.3,3.3,0,0,0-3.6,3.645v4.972a3.593,3.593,0,0,0,1.058,2.818,3.719,3.719,0,0,0,2.521.827c2.136,0,3.628-1.22,3.628-2.967,0-.682-.282-.82-.737-.82Zm0,0" fill="#fff"/>
      <path id="Path_5" data-name="Path 5" d="M23.714,4.236a2.128,2.128,0,1,0-2.128,2.128,2.131,2.131,0,0,0,2.128-2.128Zm-2.128.825a.825.825,0,1,1,.825-.825.826.826,0,0,1-.825.825Zm0,0" fill="#fff"/>
    </g>
  </g>
</svg>
