<svg xmlns="http://www.w3.org/2000/svg" xmlns:xlink="http://www.w3.org/1999/xlink" width="30" height="53" viewBox="0 0 30 53">
  <defs>
    <clipPath id="clip-path">
      <rect id="Rectangle_13" data-name="Rectangle 13" width="30" height="53" transform="translate(679 1287)" fill="#fff" stroke="#707070" stroke-width="1"/>
    </clipPath>
  </defs>
  <g id="Mask_Group_4" data-name="Mask Group 4" transform="translate(-679 -1287)" clip-path="url(#clip-path)">
    <g id="cold" transform="translate(679 1294.382)">
      <path id="Path_20" data-name="Path 20" d="M29.44,12.5H26.19a.56.56,0,1,0,0,1.12H29.44a.56.56,0,0,0,0-1.12Zm0,0" fill="#fff"/>
      <path id="Path_21" data-name="Path 21" d="M26.19,9.085h1.475a.56.56,0,1,0,0-1.12H26.19a.56.56,0,1,0,0,1.12Zm0,0" fill="#fff"/>
      <path id="Path_22" data-name="Path 22" d="M26.19,4.545h2a.56.56,0,1,0,0-1.12h-2a.56.56,0,1,0,0,1.12Zm0,0" fill="#fff"/>
      <path id="Path_23" data-name="Path 23" d="M28.189,21.583h-2a.56.56,0,1,0,0,1.12h2a.56.56,0,1,0,0-1.12Zm0,0" fill="#fff"/>
      <path id="Path_24" data-name="Path 24" d="M26.19,18.163h1.475a.56.56,0,1,0,0-1.12H26.19a.56.56,0,1,0,0,1.12Zm0,0" fill="#fff"/>
      <path id="Path_25" data-name="Path 25" d="M9.492,12.158c.926.495.982.607,1.229.607A.561.561,0,0,0,11,11.716l-.956-.535.7-.288a.56.56,0,0,0-.424-1.037l-1.527.625-2-1.122,2-1.122c1.57.628,1.546.667,1.739.667a.561.561,0,0,0,.212-1.078l-.7-.288L11,7a.56.56,0,1,0-.547-.977l-.956.535.122-.75a.56.56,0,0,0-1.106-.18L8.244,7.261,6.2,8.4V6.063L7.493,5.037a.56.56,0,1,0-.7-.877L6.2,4.632v-1.1a.56.56,0,1,0-1.12,0v1.1L4.486,4.16a.56.56,0,1,0-.7.877L5.081,6.064V8.4L3.038,7.261,2.773,5.632a.56.56,0,0,0-1.106.18l.122.75L.834,6.027A.56.56,0,1,0,.286,7l.956.535-.7.288A.56.56,0,1,0,.964,8.864l1.527-.625,2,1.122-2,1.122L.964,9.856a.56.56,0,0,0-.425,1.037l.7.288-.956.535a.561.561,0,0,0,.274,1.049c.246,0,.3-.112,1.229-.607l-.122.75a.56.56,0,1,0,1.106.18l.265-1.629,2.043-1.144v2.341L3.789,13.683a.56.56,0,1,0,.7.877l.595-.473v1.1a.56.56,0,0,0,1.12,0v-1.1c.517.375.629.594.943.594a.561.561,0,0,0,.349-1L6.2,12.657V10.316l2.043,1.144.265,1.629a.56.56,0,0,0,1.106-.18Zm0,0" fill="#fff"/>
      <path id="Path_26" data-name="Path 26" d="M23.759,23.136V5.066a5.066,5.066,0,1,0-10.132,0v18.07a8.4,8.4,0,1,0,10.132,0ZM18.693,37.115a7.28,7.28,0,0,1-4.184-13.237.561.561,0,0,0,.238-.458V5.066a3.946,3.946,0,1,1,7.892,0V23.42a.561.561,0,0,0,.238.458,7.279,7.279,0,0,1-4.183,13.237Zm0,0" fill="#fff"/>
      <path id="Path_27" data-name="Path 27" d="M21.144,24.246V5.066a2.452,2.452,0,1,0-4.9,0V6.8a.56.56,0,1,0,1.12,0V5.066a1.332,1.332,0,1,1,2.663,0v16.6H17.361V9.046a.56.56,0,1,0-1.12,0v15.2a5.974,5.974,0,1,0,4.9,0Zm-2.452,10.3a4.854,4.854,0,0,1-1.7-9.4.561.561,0,0,0,.365-.525V22.784h2.663v1.837a.561.561,0,0,0,.365.525,4.854,4.854,0,0,1-1.7,9.4Zm0,0" fill="#fff"/>
    </g>
  </g>
</svg>
