<svg xmlns="http://www.w3.org/2000/svg" xmlns:xlink="http://www.w3.org/1999/xlink" width="30" height="53" viewBox="0 0 30 53">
  <defs>
    <clipPath id="clip-path">
      <rect id="Rectangle_12" data-name="Rectangle 12" width="30" height="53" transform="translate(674 1159)" fill="#fff" stroke="#707070" stroke-width="1"/>
    </clipPath>
  </defs>
  <g id="Mask_Group_3" data-name="Mask Group 3" transform="translate(-674 -1159)" clip-path="url(#clip-path)">
    <g id="hot_1_" data-name="hot (1)" transform="translate(674 1167.335)">
      <path id="Path_11" data-name="Path 11" d="M29.468,11.881H26.38a.532.532,0,0,0,0,1.064h3.087a.532.532,0,0,0,0-1.064Zm0,0" fill="#fff"/>
      <path id="Path_12" data-name="Path 12" d="M26.38,8.632h1.4a.532.532,0,0,0,0-1.064h-1.4a.532.532,0,0,0,0,1.064Zm0,0" fill="#fff"/>
      <path id="Path_13" data-name="Path 13" d="M26.38,4.319h1.9a.532.532,0,0,0,0-1.064h-1.9a.532.532,0,0,0,0,1.064Zm0,0" fill="#fff"/>
      <path id="Path_14" data-name="Path 14" d="M28.279,20.507h-1.9a.532.532,0,0,0,0,1.064h1.9a.532.532,0,0,0,0-1.064Zm0,0" fill="#fff"/>
      <path id="Path_15" data-name="Path 15" d="M26.38,17.258h1.4a.532.532,0,0,0,0-1.064h-1.4a.532.532,0,0,0,0,1.064Zm0,0" fill="#fff"/>
      <path id="Path_16" data-name="Path 16" d="M24.07,21.982V4.814a4.813,4.813,0,1,0-9.627,0V21.982a7.981,7.981,0,1,0,9.627,0ZM19.256,35.265a6.917,6.917,0,0,1-3.975-12.577.533.533,0,0,0,.226-.435V4.814a3.749,3.749,0,1,1,7.5,0V22.253a.533.533,0,0,0,.226.435,6.917,6.917,0,0,1-3.975,12.577Zm0,0" fill="#fff"/>
      <path id="Path_17" data-name="Path 17" d="M21.586,23.037V4.814a2.329,2.329,0,1,0-4.659,0V18.481a.532.532,0,0,0,1.064,0V8.632h2.53V23.393a.532.532,0,0,0,.346.5,4.612,4.612,0,1,1-3.223,0,.533.533,0,0,0,.346-.5V20.61a.532.532,0,0,0-1.064,0v2.427a5.676,5.676,0,1,0,4.659,0ZM17.991,7.568V4.814a1.265,1.265,0,1,1,2.53,0V7.568Zm0,0" fill="#fff"/>
      <path id="Path_18" data-name="Path 18" d="M11.411,11.365a.75.75,0,0,0,.452-1.391,1.278,1.278,0,0,1,0-2.2.751.751,0,0,0-.452-1.392A1.278,1.278,0,0,1,10.12,4.608a.75.75,0,0,0-1.184-.86,1.278,1.278,0,0,1-2.09-.679.75.75,0,0,0-1.463,0,1.278,1.278,0,0,1-2.09.679.75.75,0,0,0-1.184.86A1.278,1.278,0,0,1,.82,6.385.751.751,0,0,0,.368,7.777a1.278,1.278,0,0,1,0,2.2A.75.75,0,0,0,.82,11.365a1.278,1.278,0,0,1,1.291,1.777A.75.75,0,0,0,3.294,14a1.278,1.278,0,0,1,2.09.679.75.75,0,0,0,1.463,0A1.278,1.278,0,0,1,8.936,14a.75.75,0,0,0,1.184-.86A1.278,1.278,0,0,1,11.411,11.365Zm-.7-1a2.352,2.352,0,0,0-1.754,2.414,2.352,2.352,0,0,0-2.838.922,2.352,2.352,0,0,0-2.838-.922,2.351,2.351,0,0,0-1.754-2.414,2.352,2.352,0,0,0,0-2.984A2.351,2.351,0,0,0,3.277,4.968a2.352,2.352,0,0,0,2.838-.922,2.351,2.351,0,0,0,2.838.922,2.351,2.351,0,0,0,1.754,2.414A2.351,2.351,0,0,0,10.708,10.367Zm0,0" fill="#fff"/>
      <path id="Path_19" data-name="Path 19" d="M6.115,5.941A2.934,2.934,0,1,0,9.05,8.875,2.937,2.937,0,0,0,6.115,5.941Zm0,4.8a1.87,1.87,0,1,1,1.87-1.87A1.872,1.872,0,0,1,6.115,10.744Zm0,0" fill="#fff"/>
    </g>
  </g>
</svg>
